<?xml version="1.0" encoding="UTF-8" standalone="no"?>
<!-- Generated by graphviz version 14.1.3 (20260303.0454)
 -->

<!-- Title: pipeline Pages: 1 -->

<svg
   width="4092pt"
   height="2705pt"
   viewBox="0.00 0.00 4092.00 2705.00"
   version="1.1"
   id="svg40"
   sodipodi:docname="fig_s1_pipeline.svg"
   inkscape:version="1.4.3 (0d15f750, 2025-12-25)"
   xmlns:inkscape="http://www.inkscape.org/namespaces/inkscape"
   xmlns:sodipodi="http://sodipodi.sourceforge.net/DTD/sodipodi-0.dtd"
   xmlns="http://www.w3.org/2000/svg"
   xmlns:svg="http://www.w3.org/2000/svg">
  <defs
     id="defs40">
    <rect
       x="2139"
       y="217"
       width="148.8"
       height="12.4"
       id="rect40" />
  </defs>
  <sodipodi:namedview
     id="namedview40"
     pagecolor="#ffffff"
     bordercolor="#000000"
     borderopacity="0.25"
     inkscape:showpageshadow="2"
     inkscape:pageopacity="0.0"
     inkscape:pagecheckerboard="0"
     inkscape:deskcolor="#d1d1d1"
     inkscape:document-units="pt"
     inkscape:zoom="0.22809896"
     inkscape:cx="2729.0786"
     inkscape:cy="1584.8384"
     inkscape:window-width="1974"
     inkscape:window-height="1186"
     inkscape:window-x="71"
     inkscape:window-y="101"
     inkscape:window-maximized="0"
     inkscape:current-layer="graph0" />
  <g
     id="graph0"
     class="graph"
     transform="scale(4.16667 4.16667) rotate(0) translate(36 613.11)">
    <title
       id="title1">pipeline</title>
    <polygon
       fill="white"
       stroke="none"
       points="-36,36 -36,-613.11 946,-613.11 946,36 -36,36"
       id="polygon1" />
    <text
       xml:space="preserve"
       text-anchor="start"
       x="264.83997"
       y="-561.14197"
       font-family="'Helvetica Neue'"
       font-weight="bold"
       font-size="16px"
       fill="#1a1a1a"
       id="text1">Cold-Chain Freight Monte Carlo Simulation Pipeline</text>
    <text
       xml:space="preserve"
       text-anchor="start"
       x="211.62"
       y="-547.66"
       font-family="Helvetica Neue"
       font-weight="bold"
       font-size="11.00"
       fill="#666666"
       id="text2">Distributed route simulation with paired-uncertainty design across multi-cloud infrastructure</text>
    <g
       id="clust1"
       class="cluster">
      <title
         id="title2">cluster_inputs</title>
      <path
         fill="#f0f7ff"
         stroke="#2563eb"
         stroke-width="1.8"
         d="M20,-411.58C20,-411.58 326,-411.58 326,-411.58 332,-411.58 338,-417.58 338,-423.58 338,-423.58 338,-522.11 338,-522.11 338,-528.11 332,-534.11 326,-534.11 326,-534.11 20,-534.11 20,-534.11 14,-534.11 8,-528.11 8,-522.11 8,-522.11 8,-423.58 8,-423.58 8,-417.58 14,-411.58 20,-411.58"
         id="path2" />
      <text
         xml:space="preserve"
         text-anchor="start"
         x="16"
         y="-519.71"
         font-family="Helvetica Neue"
         font-weight="bold"
         font-size="12.00"
         fill="#1e3a5f"
         id="text3">1   DATA INPUTS</text>
    </g>
    <g
       id="clust3"
       class="cluster">
      <title
         id="title3">cluster_sim</title>
      <path
         fill="#fffbeb"
         stroke="#d97706"
         stroke-width="1.8"
         d="M75,-300.56C75,-300.56 478,-300.56 478,-300.56 484,-300.56 490,-306.56 490,-312.56 490,-312.56 490,-391.58 490,-391.58 490,-397.58 484,-403.58 478,-403.58 478,-403.58 75,-403.58 75,-403.58 69,-403.58 63,-397.58 63,-391.58 63,-391.58 63,-312.56 63,-312.56 63,-306.56 69,-300.56 75,-300.56"
         id="path3" />
      <text
         xml:space="preserve"
         text-anchor="start"
         x="71"
         y="-389.18"
         font-family="Helvetica Neue"
         font-weight="bold"
         font-size="12.00"
         fill="#78350f"
         id="text4">2   ROUTE SIMULATION</text>
    </g>
    <g
       id="clust5"
       class="cluster">
      <title
         id="title4">cluster_fleet</title>
      <path
         fill="#f5f3ff"
         stroke="#7c3aed"
         stroke-width="1.8"
         d="M280,-203.04C280,-203.04 564,-203.04 564,-203.04 570,-203.04 576,-209.04 576,-215.04 576,-215.04 576,-280.56 576,-280.56 576,-286.56 570,-292.56 564,-292.56 564,-292.56 280,-292.56 280,-292.56 274,-292.56 268,-286.56 268,-280.56 268,-280.56 268,-215.04 268,-215.04 268,-209.04 274,-203.04 280,-203.04"
         id="path4" />
      <text
         xml:space="preserve"
         text-anchor="start"
         x="276"
         y="-278.16"
         font-family="Helvetica Neue"
         font-weight="bold"
         font-size="12.00"
         fill="#4c1d95"
         id="text5">3   DISTRIBUTED COMPUTE (72,872 validated runs)</text>
    </g>
    <g
       id="clust7"
       class="cluster">
      <title
         id="title5">cluster_collect</title>
      <path
         fill="#ecfdf5"
         stroke="#059669"
         stroke-width="1.8"
         d="M375,-105.52C375,-105.52 738,-105.52 738,-105.52 744,-105.52 750,-111.52 750,-117.52 750,-117.52 750,-183.04 750,-183.04 750,-189.04 744,-195.04 738,-195.04 738,-195.04 375,-195.04 375,-195.04 369,-195.04 363,-189.04 363,-183.04 363,-183.04 363,-117.52 363,-117.52 363,-111.52 369,-105.52 375,-105.52"
         id="path5" />
      <text
         xml:space="preserve"
         text-anchor="start"
         x="371"
         y="-180.64"
         font-family="Helvetica Neue"
         font-weight="bold"
         font-size="12.00"
         fill="#064e3b"
         id="text6">4   COLLECTION &amp; ANALYSIS</text>
    </g>
    <g
       id="clust9"
       class="cluster">
      <title
         id="title6">cluster_publish</title>
      <path
         fill="#fdf2f8"
         stroke="#db2777"
         stroke-width="1.8"
         d="M613,-8C613,-8 890,-8 890,-8 896,-8 902,-14 902,-20 902,-20 902,-85.52 902,-85.52 902,-91.52 896,-97.52 890,-97.52 890,-97.52 613,-97.52 613,-97.52 607,-97.52 601,-91.52 601,-85.52 601,-85.52 601,-20 601,-20 601,-14 607,-8 613,-8"
         id="path6" />
      <text
         xml:space="preserve"
         text-anchor="start"
         x="609"
         y="-83.12"
         font-family="Helvetica Neue"
         font-weight="bold"
         font-size="12.00"
         fill="#831843"
         id="text7">5   PUBLISHING</text>
    </g>
    <!-- A1 -->
    <g
       id="node1"
       class="node">
      <title
         id="title7">A1</title>
      <path
         fill="#dbeafe"
         stroke="#2563eb"
         stroke-width="1.5"
         d="M165.55,-490.61C165.55,-494.19 133.48,-497.11 94,-497.11 54.52,-497.11 22.45,-494.19 22.45,-490.61 22.45,-490.61 22.45,-432.08 22.45,-432.08 22.45,-428.49 54.52,-425.58 94,-425.58 133.48,-425.58 165.55,-428.49 165.55,-432.08 165.55,-432.08 165.55,-490.61 165.55,-490.61"
         id="path7" />
      <path
         fill="none"
         stroke="#2563eb"
         stroke-width="1.5"
         d="M165.55,-490.61C165.55,-487.02 133.48,-484.1 94,-484.1 54.52,-484.1 22.45,-487.02 22.45,-490.61"
         id="path8" />
      <text
         xml:space="preserve"
         text-anchor="middle"
         x="94"
         y="-471.14"
         font-family="Helvetica Neue"
         font-size="11.00"
         fill="#1e3a5f"
         id="text8">Scenario matrix</text>
      <text
         xml:space="preserve"
         text-anchor="middle"
         x="94"
         y="-457.64"
         font-family="Helvetica Neue"
         font-size="11.00"
         fill="#1e3a5f"
         id="text9">Emission factors</text>
      <text
         xml:space="preserve"
         text-anchor="middle"
         x="94"
         y="-444.14"
         font-family="Helvetica Neue"
         font-size="11.00"
         fill="#1e3a5f"
         id="text10">Sampling priors · Grid CI</text>
    </g>
    <!-- B -->
    <g
       id="node3"
       class="node">
      <title
         id="title10">B</title>
      <path
         fill="#fef3c7"
         stroke="#d97706"
         stroke-width="1.5"
         d="M125.3,-359.83C125.3,-359.83 88.7,-359.83 88.7,-359.83 82.7,-359.83 76.7,-353.83 76.7,-347.83 76.7,-347.83 76.7,-333.31 76.7,-333.31 76.7,-327.31 82.7,-321.31 88.7,-321.31 88.7,-321.31 125.3,-321.31 125.3,-321.31 131.3,-321.31 137.3,-327.31 137.3,-333.31 137.3,-333.31 137.3,-347.83 137.3,-347.83 137.3,-353.83 131.3,-359.83 125.3,-359.83"
         id="path10" />
      <text
         xml:space="preserve"
         text-anchor="middle"
         x="107"
         y="-343.62"
         font-family="Helvetica Neue"
         font-size="11.00"
         fill="#78350f"
         id="text11">Validate</text>
      <text
         xml:space="preserve"
         text-anchor="middle"
         x="107"
         y="-330.12"
         font-family="Helvetica Neue"
         font-size="11.00"
         fill="#78350f"
         id="text12">inputs</text>
    </g>
    <!-- A1&#45;&gt;B -->
    <g
       id="edge6"
       class="edge">
      <title
         id="title12">A1-&gt;B</title>
      <path
         fill="none"
         stroke="#555555"
         stroke-width="1.2"
         d="M97.87,-425.03C99.82,-407.14 102.16,-385.75 103.99,-369.1"
         id="path12" />
      <polygon
         fill="#555555"
         stroke="#555555"
         stroke-width="1.2"
         points="106.42,-369.42 104.74,-362.2 101.55,-368.89 106.42,-369.42"
         id="polygon12" />
    </g>
    <!-- A2 -->
    <g
       id="node2"
       class="node">
      <title
         id="title13">A2</title>
      <path
         fill="#dbeafe"
         stroke="#2563eb"
         stroke-width="1.5"
         d="M323.68,-490.61C323.68,-494.19 297.82,-497.11 266,-497.11 234.18,-497.11 208.32,-494.19 208.32,-490.61 208.32,-490.61 208.32,-432.08 208.32,-432.08 208.32,-428.49 234.18,-425.58 266,-425.58 297.82,-425.58 323.68,-428.49 323.68,-432.08 323.68,-432.08 323.68,-490.61 323.68,-490.61"
         id="path13" />
      <path
         fill="none"
         stroke="#2563eb"
         stroke-width="1.5"
         d="M323.68,-490.61C323.68,-487.02 297.82,-484.1 266,-484.1 234.18,-484.1 208.32,-487.02 208.32,-490.61"
         id="path14" />
      <text
         xml:space="preserve"
         text-anchor="middle"
         x="266"
         y="-471.14"
         font-family="Helvetica Neue"
         font-size="11.00"
         fill="#1e3a5f"
         id="text14">Google Routes API</text>
      <text
         xml:space="preserve"
         text-anchor="middle"
         x="266"
         y="-457.64"
         font-family="Helvetica Neue"
         font-size="11.00"
         fill="#1e3a5f"
         id="text15">BEV charge plans</text>
      <text
         xml:space="preserve"
         text-anchor="middle"
         x="266"
         y="-444.14"
         font-family="Helvetica Neue"
         font-size="11.00"
         fill="#1e3a5f"
         id="text16">OD distance cache</text>
    </g>
    <!-- C -->
    <g
       id="node4"
       class="node">
      <title
         id="title16">C</title>
      <path
         fill="#fef3c7"
         stroke="#d97706"
         stroke-width="1.5"
         d="M313.3,-366.58C313.3,-366.58 192.7,-366.58 192.7,-366.58 186.7,-366.58 180.7,-360.58 180.7,-354.58 180.7,-354.58 180.7,-326.56 180.7,-326.56 180.7,-320.56 186.7,-314.56 192.7,-314.56 192.7,-314.56 313.3,-314.56 313.3,-314.56 319.3,-314.56 325.3,-320.56 325.3,-326.56 325.3,-326.56 325.3,-354.58 325.3,-354.58 325.3,-360.58 319.3,-366.58 313.3,-366.58"
         id="path16" />
      <text
         xml:space="preserve"
         text-anchor="middle"
         x="253"
         y="-350.37"
         font-family="Helvetica Neue"
         font-size="11.00"
         fill="#78350f"
         id="text17">Route sim engine</text>
      <text
         xml:space="preserve"
         text-anchor="middle"
         x="253"
         y="-336.87"
         font-family="Helvetica Neue"
         font-size="11.00"
         fill="#78350f"
         id="text18">Traffic · TRU · Powertrain</text>
      <text
         xml:space="preserve"
         text-anchor="middle"
         x="253"
         y="-323.37"
         font-family="Helvetica Neue"
         font-size="11.00"
         fill="#78350f"
         id="text19">Charging (R/sim/01–10)</text>
    </g>
    <!-- A2&#45;&gt;C -->
    <g
       id="edge7"
       class="edge">
      <title
         id="title19">A2-&gt;C</title>
      <path
         fill="none"
         stroke="#555555"
         stroke-width="1.2"
         d="M262.13,-425.03C260.43,-409.48 258.44,-391.28 256.75,-375.85"
         id="path19" />
      <polygon
         fill="#555555"
         stroke="#555555"
         stroke-width="1.2"
         points="259.19,-375.63 256,-368.94 254.32,-376.16 259.19,-375.63"
         id="polygon19" />
    </g>
    <!-- B&#45;&gt;C -->
    <g
       id="edge1"
       class="edge">
      <title
         id="title20">B-&gt;C</title>
      <path
         fill="none"
         stroke="#555555"
         stroke-width="1.2"
         d="M137.82,-340.57C147.48,-340.57 155.67,-340.57 155.67,-340.57 155.67,-340.57 162.65,-340.57 171.33,-340.57"
         id="path20" />
      <polygon
         fill="#555555"
         stroke="#555555"
         stroke-width="1.2"
         points="171.18,-343.02 178.18,-340.57 171.18,-338.12 171.18,-343.02"
         id="polygon20" />
    </g>
    <!-- D -->
    <g
       id="node5"
       class="node">
      <title
         id="title21">D</title>
      <path
         fill="#fef3c7"
         stroke="#d97706"
         stroke-width="1.5"
         d="M463.93,-359.83C463.93,-359.83 380.07,-359.83 380.07,-359.83 374.07,-359.83 368.07,-353.83 368.07,-347.83 368.07,-347.83 368.07,-333.31 368.07,-333.31 368.07,-327.31 374.07,-321.31 380.07,-321.31 380.07,-321.31 463.93,-321.31 463.93,-321.31 469.93,-321.31 475.93,-327.31 475.93,-333.31 475.93,-333.31 475.93,-347.83 475.93,-347.83 475.93,-353.83 469.93,-359.83 463.93,-359.83"
         id="path21" />
      <text
         xml:space="preserve"
         text-anchor="middle"
         x="422"
         y="-343.62"
         font-family="Helvetica Neue"
         font-size="11.00"
         fill="#78350f"
         id="text21">Paired MC draws</text>
      <text
         xml:space="preserve"
         text-anchor="middle"
         x="422"
         y="-330.12"
         font-family="Helvetica Neue"
         font-size="11.00"
         fill="#78350f"
         id="text22">(CRN design)</text>
    </g>
    <!-- C&#45;&gt;D -->
    <g
       id="edge2"
       class="edge">
      <title
         id="title22">C-&gt;D</title>
      <path
         fill="none"
         stroke="#555555"
         stroke-width="1.2"
         d="M325.93,-340.57C336.71,-340.57 350.21,-340.57 358.89,-340.57"
         id="path22" />
      <polygon
         fill="#555555"
         stroke="#555555"
         stroke-width="1.2"
         points="358.72,-343.02 365.72,-340.57 358.72,-338.12 358.72,-343.02"
         id="polygon22" />
    </g>
    <!-- E1 -->
    <g
       id="node6"
       class="node">
      <title
         id="title23">E1</title>
      <path
         fill="#ede9fe"
         stroke="#7c3aed"
         stroke-width="1.5"
         d="M337.55,-255.56C337.55,-255.56 302.45,-255.56 302.45,-255.56 296.45,-255.56 290.45,-249.56 290.45,-243.56 290.45,-243.56 290.45,-229.04 290.45,-229.04 290.45,-223.04 296.45,-217.04 302.45,-217.04 302.45,-217.04 337.55,-217.04 337.55,-217.04 343.55,-217.04 349.55,-223.04 349.55,-229.04 349.55,-229.04 349.55,-243.56 349.55,-243.56 349.55,-249.56 343.55,-255.56 337.55,-255.56"
         id="path23" />
      <text
         xml:space="preserve"
         text-anchor="middle"
         x="320"
         y="-239.35"
         font-family="Helvetica Neue"
         font-size="11.00"
         fill="#4c1d95"
         id="text23">macOS</text>
      <text
         xml:space="preserve"
         text-anchor="middle"
         x="320"
         y="-225.85"
         font-family="Helvetica Neue"
         font-size="11.00"
         fill="#4c1d95"
         id="text24">local</text>
    </g>
    <!-- D&#45;&gt;E1 -->
    <g
       id="edge8"
       class="edge">
      <title
         id="title24">D-&gt;E1</title>
      <path
         fill="none"
         stroke="#555555"
         stroke-width="1.2"
         d="M401.55,-320.72C387.36,-307.64 371,-292.56 371,-292.56 371,-292.56 356.5,-276.85 342.96,-262.18"
         id="path24" />
      <polygon
         fill="#555555"
         stroke="#555555"
         stroke-width="1.2"
         points="345.05,-260.83 338.5,-257.34 341.45,-264.15 345.05,-260.83"
         id="polygon24" />
    </g>
    <!-- E2 -->
    <g
       id="node7"
       class="node">
      <title
         id="title25">E2</title>
      <path
         fill="#ede9fe"
         stroke="#7c3aed"
         stroke-width="1.5"
         d="M439.55,-255.56C439.55,-255.56 404.45,-255.56 404.45,-255.56 398.45,-255.56 392.45,-249.56 392.45,-243.56 392.45,-243.56 392.45,-229.04 392.45,-229.04 392.45,-223.04 398.45,-217.04 404.45,-217.04 404.45,-217.04 439.55,-217.04 439.55,-217.04 445.55,-217.04 451.55,-223.04 451.55,-229.04 451.55,-229.04 451.55,-243.56 451.55,-243.56 451.55,-249.56 445.55,-255.56 439.55,-255.56"
         id="path25" />
      <text
         xml:space="preserve"
         text-anchor="middle"
         x="422"
         y="-239.35"
         font-family="Helvetica Neue"
         font-size="11.00"
         fill="#4c1d95"
         id="text25">GCP</text>
      <text
         xml:space="preserve"
         text-anchor="middle"
         x="422"
         y="-225.85"
         font-family="Helvetica Neue"
         font-size="11.00"
         fill="#4c1d95"
         id="text26">×4 VMs</text>
    </g>
    <!-- D&#45;&gt;E2 -->
    <g
       id="edge9"
       class="edge">
      <title
         id="title26">D-&gt;E2</title>
      <path
         fill="none"
         stroke="#555555"
         stroke-width="1.2"
         d="M422,-320.81C422,-305.2 422,-282.74 422,-265.04"
         id="path26" />
      <polygon
         fill="#555555"
         stroke="#555555"
         stroke-width="1.2"
         points="424.45,-265.1 422,-258.1 419.55,-265.1 424.45,-265.1"
         id="polygon26" />
    </g>
    <!-- E3 -->
    <g
       id="node8"
       class="node">
      <title
         id="title27">E3</title>
      <path
         fill="#ede9fe"
         stroke="#7c3aed"
         stroke-width="1.5"
         d="M541.55,-255.56C541.55,-255.56 506.45,-255.56 506.45,-255.56 500.45,-255.56 494.45,-249.56 494.45,-243.56 494.45,-243.56 494.45,-229.04 494.45,-229.04 494.45,-223.04 500.45,-217.04 506.45,-217.04 506.45,-217.04 541.55,-217.04 541.55,-217.04 547.55,-217.04 553.55,-223.04 553.55,-229.04 553.55,-229.04 553.55,-243.56 553.55,-243.56 553.55,-249.56 547.55,-255.56 541.55,-255.56"
         id="path27" />
      <text
         xml:space="preserve"
         text-anchor="middle"
         x="524"
         y="-239.35"
         font-family="Helvetica Neue"
         font-size="11.00"
         fill="#4c1d95"
         id="text27">Azure</text>
      <text
         xml:space="preserve"
         text-anchor="middle"
         x="524"
         y="-225.85"
         font-family="Helvetica Neue"
         font-size="11.00"
         fill="#4c1d95"
         id="text28">×4 VMs</text>
    </g>
    <!-- D&#45;&gt;E3 -->
    <g
       id="edge10"
       class="edge">
      <title
         id="title28">D-&gt;E3</title>
      <path
         fill="none"
         stroke="#555555"
         stroke-width="1.2"
         d="M442.45,-320.72C456.64,-307.64 473,-292.56 473,-292.56 473,-292.56 487.5,-276.85 501.04,-262.18"
         id="path28" />
      <polygon
         fill="#555555"
         stroke="#555555"
         stroke-width="1.2"
         points="502.55,-264.15 505.5,-257.34 498.95,-260.83 502.55,-264.15"
         id="polygon28" />
    </g>
    <!-- F -->
    <g
       id="node9"
       class="node">
      <title
         id="title29">F</title>
      <path
         fill="#d1fae5"
         stroke="#059669"
         stroke-width="1.5"
         d="M455.3,-158.04C455.3,-158.04 388.7,-158.04 388.7,-158.04 382.7,-158.04 376.7,-152.04 376.7,-146.04 376.7,-146.04 376.7,-131.52 376.7,-131.52 376.7,-125.52 382.7,-119.52 388.7,-119.52 388.7,-119.52 455.3,-119.52 455.3,-119.52 461.3,-119.52 467.3,-125.52 467.3,-131.52 467.3,-131.52 467.3,-146.04 467.3,-146.04 467.3,-152.04 461.3,-158.04 455.3,-158.04"
         id="path29" />
      <text
         xml:space="preserve"
         text-anchor="middle"
         x="422"
         y="-141.83"
         font-family="Helvetica Neue"
         font-size="11.00"
         fill="#064e3b"
         id="text29">Pull &amp; merge</text>
      <text
         xml:space="preserve"
         text-anchor="middle"
         x="422"
         y="-128.33"
         font-family="Helvetica Neue"
         font-size="11.00"
         fill="#064e3b"
         id="text30">worker results</text>
    </g>
    <!-- E1&#45;&gt;F -->
    <g
       id="edge11"
       class="edge">
      <title
         id="title30">E1-&gt;F</title>
      <path
         fill="none"
         stroke="#555555"
         stroke-width="1.2"
         d="M340.15,-216.43C356.08,-201.51 378.43,-180.58 395.76,-164.36"
         id="path30" />
      <polygon
         fill="#555555"
         stroke="#555555"
         stroke-width="1.2"
         points="397.13,-166.43 400.56,-159.85 393.78,-162.85 397.13,-166.43"
         id="polygon30" />
    </g>
    <!-- E2&#45;&gt;F -->
    <g
       id="edge12"
       class="edge">
      <title
         id="title31">E2-&gt;F</title>
      <path
         fill="none"
         stroke="#555555"
         stroke-width="1.2"
         d="M422,-216.43C422,-202.43 422,-183.13 422,-167.4"
         id="path31" />
      <polygon
         fill="#555555"
         stroke="#555555"
         stroke-width="1.2"
         points="424.45,-167.43 422,-160.43 419.55,-167.43 424.45,-167.43"
         id="polygon31" />
    </g>
    <!-- E3&#45;&gt;F -->
    <g
       id="edge13"
       class="edge">
      <title
         id="title32">E3-&gt;F</title>
      <path
         fill="none"
         stroke="#555555"
         stroke-width="1.2"
         d="M503.85,-216.43C487.92,-201.51 465.57,-180.58 448.24,-164.36"
         id="path32" />
      <polygon
         fill="#555555"
         stroke="#555555"
         stroke-width="1.2"
         points="450.22,-162.85 443.44,-159.85 446.87,-166.43 450.22,-162.85"
         id="polygon32" />
    </g>
    <!-- G -->
    <g
       id="node10"
       class="node">
      <title
         id="title33">G</title>
      <path
         fill="#d1fae5"
         stroke="#059669"
         stroke-width="1.5"
         d="M579.42,-158.04C579.42,-158.04 522.58,-158.04 522.58,-158.04 516.58,-158.04 510.57,-152.04 510.57,-146.04 510.57,-146.04 510.57,-131.52 510.57,-131.52 510.57,-125.52 516.58,-119.52 522.58,-119.52 522.58,-119.52 579.42,-119.52 579.42,-119.52 585.42,-119.52 591.42,-125.52 591.42,-131.52 591.42,-131.52 591.42,-146.04 591.42,-146.04 591.42,-152.04 585.42,-158.04 579.42,-158.04"
         id="path33" />
      <text
         xml:space="preserve"
         text-anchor="middle"
         x="551"
         y="-141.83"
         font-family="Helvetica Neue"
         font-size="11.00"
         fill="#064e3b"
         id="text33">Deduplicate</text>
      <text
         xml:space="preserve"
         text-anchor="middle"
         x="551"
         y="-128.33"
         font-family="Helvetica Neue"
         font-size="11.00"
         fill="#064e3b"
         id="text34">by run_id</text>
    </g>
    <!-- F&#45;&gt;G -->
    <g
       id="edge3"
       class="edge">
      <title
         id="title34">F-&gt;G</title>
      <path
         fill="none"
         stroke="#555555"
         stroke-width="1.2"
         d="M467.82,-138.78C474.4,-138.78 490.92,-138.78 501.21,-138.78"
         id="path34" />
      <polygon
         fill="#555555"
         stroke="#555555"
         stroke-width="1.2"
         points="501.03,-141.23 508.03,-138.78 501.03,-136.33 501.03,-141.23"
         id="polygon34" />
    </g>
    <!-- H -->
    <g
       id="node11"
       class="node">
      <title
         id="title35">H</title>
      <path
         fill="#d1fae5"
         stroke="#059669"
         stroke-width="1.5"
         d="M723.55,-158.04C723.55,-158.04 646.45,-158.04 646.45,-158.04 640.45,-158.04 634.45,-152.04 634.45,-146.04 634.45,-146.04 634.45,-131.52 634.45,-131.52 634.45,-125.52 640.45,-119.52 646.45,-119.52 646.45,-119.52 723.55,-119.52 723.55,-119.52 729.55,-119.52 735.55,-125.52 735.55,-131.52 735.55,-131.52 735.55,-146.04 735.55,-146.04 735.55,-152.04 729.55,-158.04 723.55,-158.04"
         id="path35" />
      <text
         xml:space="preserve"
         text-anchor="middle"
         x="685"
         y="-141.83"
         font-family="Helvetica Neue"
         font-size="11.00"
         fill="#064e3b"
         id="text35">Audit analysis &amp;</text>
      <text
         xml:space="preserve"
         text-anchor="middle"
         x="685"
         y="-128.33"
         font-family="Helvetica Neue"
         font-size="11.00"
         fill="#064e3b"
         id="text36">FU computation</text>
    </g>
    <!-- G&#45;&gt;H -->
    <g
       id="edge4"
       class="edge">
      <title
         id="title36">G-&gt;H</title>
      <path
         fill="none"
         stroke="#555555"
         stroke-width="1.2"
         d="M592.16,-138.78C594.35,-138.78 595.67,-138.78 595.67,-138.78 595.67,-138.78 612.28,-138.78 625.24,-138.78"
         id="path36" />
      <polygon
         fill="#555555"
         stroke="#555555"
         stroke-width="1.2"
         points="624.93,-141.23 631.93,-138.78 624.93,-136.33 624.93,-141.23"
         id="polygon36" />
    </g>
    <!-- I -->
    <g
       id="node12"
       class="node">
      <title
         id="title37">I</title>
      <path
         fill="#fce7f3"
         stroke="#db2777"
         stroke-width="1.5"
         d="M743.05,-60.52C743.05,-60.52 626.95,-60.52 626.95,-60.52 620.95,-60.52 614.95,-54.52 614.95,-48.52 614.95,-48.52 614.95,-34 614.95,-34 614.95,-28 620.95,-22 626.95,-22 626.95,-22 743.05,-22 743.05,-22 749.05,-22 755.05,-28 755.05,-34 755.05,-34 755.05,-48.52 755.05,-48.52 755.05,-54.52 749.05,-60.52 743.05,-60.52"
         id="path37" />
      <text
         xml:space="preserve"
         text-anchor="middle"
         x="685"
         y="-44.31"
         font-family="Helvetica Neue"
         font-size="11.00"
         fill="#831843"
         id="text37">Frozen artifacts</text>
      <text
         xml:space="preserve"
         text-anchor="middle"
         x="685"
         y="-30.81"
         font-family="Helvetica Neue"
         font-size="11.00"
         fill="#831843"
         id="text38">figures · tables · dataset</text>
    </g>
    <!-- H&#45;&gt;I -->
    <g
       id="edge14"
       class="edge">
      <title
         id="title38">H-&gt;I</title>
      <path
         fill="none"
         stroke="#555555"
         stroke-width="1.2"
         d="M685,-118.91C685,-104.91 685,-85.61 685,-69.88"
         id="path38" />
      <polygon
         fill="#555555"
         stroke="#555555"
         stroke-width="1.2"
         points="687.45,-69.91 685,-62.91 682.55,-69.91 687.45,-69.91"
         id="polygon38" />
    </g>
    <!-- J -->
    <g
       id="node13"
       class="node">
      <title
         id="title39">J</title>
      <path
         fill="#fce7f3"
         stroke="#db2777"
         stroke-width="1.5"
         d="M876.3,-59.26C876.3,-59.26 809.7,-59.26 809.7,-59.26 803.7,-59.26 797.7,-53.26 797.7,-47.26 797.7,-47.26 797.7,-35.26 797.7,-35.26 797.7,-29.26 803.7,-23.26 809.7,-23.26 809.7,-23.26 876.3,-23.26 876.3,-23.26 882.3,-23.26 888.3,-29.26 888.3,-35.26 888.3,-35.26 888.3,-47.26 888.3,-47.26 888.3,-53.26 882.3,-59.26 876.3,-59.26"
         id="path39" />
      <text
         xml:space="preserve"
         text-anchor="middle"
         x="843"
         y="-37.56"
         font-family="Helvetica Neue"
         font-size="11.00"
         fill="#831843"
         id="text39">GitHub Pages</text>
    </g>
    <!-- I&#45;&gt;J -->
    <g
       id="edge5"
       class="edge">
      <title
         id="title40">I-&gt;J</title>
      <path
         fill="none"
         stroke="#555555"
         stroke-width="1.2"
         d="M755.79,-41.26C766.62,-41.26 779.51,-41.26 788.53,-41.26"
         id="path40" />
      <polygon
         fill="#555555"
         stroke="#555555"
         stroke-width="1.2"
         points="788.4,-43.71 795.4,-41.26 788.4,-38.81 788.4,-43.71"
         id="polygon40" />
    </g>
    <text
       xml:space="preserve"
       transform="matrix(0.17999986,0,0,0.17999986,-36,-613.11)"
       id="text40"
       style="fill:#000000;writing-mode:lr-tb;text-orientation:auto;direction:ltr;white-space:pre;shape-inside:url(#rect40)" />
  </g>
</svg>
